<?xml version="1.0" encoding="utf-8"?>
<!-- Generator: Adobe Illustrator 25.2.3, SVG Export Plug-In . SVG Version: 6.00 Build 0)  -->
<svg version="1.1" id="Слой_1" xmlns="http://www.w3.org/2000/svg" xmlns:xlink="http://www.w3.org/1999/xlink" x="0px" y="0px"
	 viewBox="0 0 768 867" style="enable-background:new 0 0 768 867;" xml:space="preserve">
<style type="text/css">
	.st0{fill:#FFFDFB;}
</style>
<path class="st0" d="M588,550.2c-0.6,3.9,0.5,8.1,0.5,8.1c-5.5-1.5-6.6-5-6.6-5c-0.5,4.5-6,11.1-6,11.1v-8.6
	c-4.8,4.5-1.7,13.1-1.7,13.1c-4-1-5.6-4-5.6-4c-4,5,1.2,11.1,1.2,11.1c-4.5-0.5-7-9.6-6.5-7.1s-1,11.1-1,11.1c0.5-3.5-3-7.1-3-7.1
	c1,4-3.5,29.2-3.5,29.2l-2-7.6c0.5,5-2,25.7-2,25.7l-2-3.5c2.5,8.6-3,29.2-3,27.2s-2.1-9.6-2.1-9.6c0,8.1-4.4,32.7-4.4,32.7
	c2.5,7.1-5,27.7-5,26.2s-1-5-1-5c-0.5,7.6-4.5,19.6-4.5,19.6c1-6-2.5-2-2.5-2c0.5,11.6-11.6,33.2-11.6,33.2c0.5-5-3.5,2-3.5,2
	c-4,6.5-4.5,16.6-4.5,16.6l-2-2c-1.5,2,0,14.1-1,12.6s-3-0.5-3-0.5c-1.5,3-0.5,11.1-0.5,11.1l-2-4.5l1,11.6c-3-5-1,4.5-1,4.5
	c0,4.5,9.1,24.2,9.1,24.2c3.5-1.5,14.6,0.5,14.6,0.5c8.1,2.5,12.4,15.1,12.4,15.1s-7.6-4.5-5.5-3.5s2.3,6.9,2.3,6.9
	c-10.1,4.4-38.8-2.5-38.8-2.5c-10.8-1.9-8.9-21.6-8.9-21.6l-1.9-5.7c-0.6-8.9-2.5-5.7-2.5-5.7c-3.8-7.6-5.2-14.1-5.2-14.1v4.5
	c-6-7.6-9.2-19.7-8.5-17.1s-1.2,5.7-1.2,10.8s-2.4,20.3-2.4,20.3l-1.8-4.4l-2.5,11l-3.1-2.7c-3.2,7.6,7.6,29.2,7.6,29.2
	c5.8-1.9,13.3,0.6,13.3,0.6c8.2,3.2,13.3,17.1,13.3,17.1s-7-3.8-5.7-1.3s1.3,7,1.3,7c-6.3,2.5-38.7-4.4-38.7-4.4
	c-13.3-8.2-11.4-17.8-11.4-20.3s-3.2-21.6-3.2-21.6c-2.5-1.9-3.8,7.6-3.8,7.6c-1.3-4.4,0-14.6,0-14.6l-2.5,6.3c-1.3-5.1,0-19,0-19
	c-3.2-10.8-4.4,0-4.4,0c-14.6-14.6-16.5-52-16.5-52c-1.9-0.6-1.9,6.3-1.9,6.3c-6.3-8.2,0.6-40,0.6-40l-3.8,8.9
	c-7.6-9.5-4.4-45-4.4-45l-2.5,4.4c-5.1-12.7,1.3-46.3,1.3-46.3l-3.8,3.2c7.6-29.8-2-46.3-2-46.3l-6.6,7.7c0,0,3.3-3.7,0.5-7
	c0,0-6.1,6.6-11.8,7.1c0,0,5.7-4.2,4.7-5.6s-9.9-2.3-11.8,3.3l-1.4-3.3c0,0-1.4,6.6-0.5,8.5l-4.2-8c0,0-4.2,6.1-19.8,5.7
	c0,0,6.6-1.4,7.5-3.3s0.9-1.9,0.9-1.9s-25.5,3.3-28.3,9.4l2.2-6.1l-7.6,5.5v-3.6c-1.2-1.9-3.4,1.9-3.4,1.9c-1.4-0.5-8-4.2-8-4.2
	c-3.8-0.9-0.3,3.8-0.3,3.8c-4.7-2.4-13.1-5.7-13.1-5.7c-1.9,0,1,4.7,1,4.7c-5.2-1.9-22.1-10.4-22.1-10.4c-1.9,0,1.9,5.2,1.9,5.2
	c-4.7-0.9-12.7-7.5-12.7-7.5l-1.9,2.4c-3.8-4.7-9.4-7.1-11.3-7.1s1.9,5.2,1.9,5.2c-10.4-4.7-20.2-16-19.3-14.1
	c0.9,1.9,2.4,6.2,2.4,6.2c-11.8-14.1-19.7-8.9-19.7-8.9s-12.6,40.7-24.7,54.6c0,0,4.4-8.2,1.9-10.8s-5.7,24.7-12.7,31.7l2.5-8.9
	c0,0-7,15.9-11.4,19l0.6-7c0,0-13.5,27.3-17.1,27.9v-6.8c0,0-10.8,10.6-11.4,23.9c0,0-4.8,37.4-1.6,44.4l-2.4-4.4
	c0,0,3.2,15.9,1.3,22.8l-2.5-5.7c0,0,3.8,19.7,1.9,26.6l-1.9-6.3c0,0-3.8,12,3.2,22.8c0,0,23.5,25.4,25.4,30.4l15.2,3.2
	c0,0,11.4,7,15.2,14l-8.9,1.9l4.4,5.1c0,0-20.9,8.9-35.5-1.3c0,0-17.1-1.6-17.1-12.7c0,0-8.2-12.1-12.1-16.5
	c0,0-18.4-18.4-14.6-29.2c0,0-7-14.6-7-8.2c0,0-7-12.7-7-5.1c0,0-8.2-5.1-7.6-16.5c0,0-1.9,7-0.6,11.4c0,0-8.2-10.8-8.2-17.1
	c0,0-4.4,11.4-1.3,21.6c0,0,12.7,17.8,15.9,21.6l7.6,1.3c0,0,9.8,5.8,13.3,15.9c0,0-14.6,8.8-34.9,1.8c0,0-9.3-0.9-8.7-10.6
	c0,0-5.8-9.6-12.2-16.6c0,0-9.5-10.1-7-23.5c0,0,3.2-4.4-3.2-10.8c0,0-3.1-3.8-3.1,1.3c0,0-9.5-10.1-9.5-14c0-3.8,0,7,0,7
	s-7-14-7-20.3l-3.5,4.4c0,0,0.2-24.7,2.7-29.8l-5,9.5c0,0,0-26,3.2-29.8l-3.2,3.8c0,0-4.4-31.1,1.3-35.5c0,0-8.2,16.5-8.2,9.5
	c0,0,1.3-32.3,11.4-43.1c0,0-3.8-0.6-5.7,2.5c0,0,8.2-19.7,16.5-25.4l-6.3,1.9c0,0,16.5-20.9,25.4-25.4c0,0,7.6-9.5,7.6-20.3
	l-3.2-5.1l-3.3,3.3c3.3-3.3,1.4-17.4,1.4-17.4c0,4.2-3.8,10.4-3.8,10.4c3.8-3.8-6.6-29.7-6.6-29.7c-1.4,0.9,2.8,15.1,2.8,15.1
	c-10.4-22.6-10.7-43.8-10.7-43.8c-0.5-25-7.7-25.5-7.7-25.5c-2.4,0.5-0.9,8-2.8,7.1c-1.9-0.9-1.9-4.7-1.9-4.7
	c-4.7,0.5,0.5,9.4,0.5,9.4c-30.2-15.1-16-80.6-18.4-79.7S3.2,398,3.2,398c-1.4-22.2,11.3-45.2,11.3-45.2L7.9,357
	c5.2-5.2,14.1-28.8,14.1-28.8l-4.2,3.3c5.2-15.1,26.9-23.6,26.9-23.6c4.2,0,15.6-15.1,15.6-15.1l-8.5,5.3
	C76,270.9,152.6,251,152.6,251h-6c28.3-14.5,91.4-3.1,91.4-3.1l-5.2-2.8c7.5-1.4,32.1,9.3,32.1,9.3c-1.4,0-4.7-4.3-4.7-4.3
	c14.1,8,58,15,58,15c44.8,3.8,50.9,14.1,50.9,14.1l-4.2-4.7c6.6,5.7,25.5,1.9,25.5,1.9l-7.1-1.4c17.9-2.8,60.8,8,60.8,8l-4.7-2.8
	c8-1.4,36.8,9.8,36.8,9.8c21.7,9.4,27.8-7,27.8-7c-3.8,5.7-9.4,1.9-9.4,1.9c8,0.9,15.6-22.6,15.6-22.6l-2.8,2.8
	c2.8-13.7,11.3-25.9,11.3-25.9l-5.2,2.8c6.6-8,19.3-45.7,19.3-45.7c-3.3,0.9-4.2,5.7-4.2,5.7c4.2-19.3,17.4-41.5,17.4-41.5l-4.2,4.7
	c7.1-22.6,25.9-41.5,24-39.1s-5.7,1.4-5.7,1.4c13.7-9,14.6-17.4,14.6-17.4c0.5-1.3,1.2-2.6,2-4.1c7.2-11.7,26.7-27,26.7-27l-4.7,1.4
	c11.8-14.1,31.4-20.7,31.4-20.7s-0.1-12.6,18.3-25.2c0,0,27.9-30.4,33.6-25.3c0,0-28.6,38.7-21.6,50.1c0,0,7,1.3,10.8,3.2
	c0,0,1.3-13.9,17.1-22.2c0,0,22.8-26.6,31.7-23.5c0,0-33,41.9-26.6,49.5c0,0,23.5,0.6,28.5,12.1c0,0-8.2-8.2-17.8-3.2
	c0,0,22.2,3.8,17.8,22.8c0,0-3.8-5.1-7.6-5.1c0,0,7,9.5,6.3,17.8c0,0-5.7-3.2-9.5-1.9c0,0,12.7,11.4,19.7,15.2
	c0,0,24.4,7.8,26.3,35.1c0,0,10.8,18.9-4.2,20.7c0,0-6.1,11.3-14.6,7.5c0,0-13.2-0.5-20.3-9c0,0-11.3-3.1-19.1,2.5l4,0.9l-8.4,1.6
	l3.4,0.6c0,0-10.6,2.8-11.2,1.6l5.3,0.9c0,0-8.4,3.4-17.1,3.7c0,0-8.4-2.5-7.8,11.8l-1.6-4.4c0,0-2,7.8-0.1,16.8c0,0-2.6-4-2.6-5.6
	s0-2,0-2s-4.1,18.3,0.6,35.7c0,0,3,15,2,24.2c0,0-0.5-3.4-1.9-6.5c0,0,1.9,18.2-3.7,35.8c0,0-2.2,11.6,1.5,19.5l-3-2.6
	c0,0-1.1,9.8,2.3,16.5L658,327c0,0,4,22.1-0.2,32.3c0,0,0-3.8-1.1-6.8c0,0-0.2,8.3,1.3,13.1l-2.2-1.1c0,0-3,9.8,0.4,16.5l-2.6-2.6
	c0,0,2.3,7.5-0.4,14.6l-1.2-3c0,0-3.9,12.8-7.7,18.9c0,0-5.2,7.5-1.4,18.9l-3.8-3.3c0,0-2.8,12.7,2.4,17.9l-5.2-5.2
	c0,0,0.9,13.7-0.5,18.9l-1.9-8c0,0-2.8,9.9,1,19.8c0,0-4.7-4.7-4.7-6.1s-1.8,14.7,1.9,19.4c0,0-4.6-1.7-5.1-5.5c0,0-6.9,14-1.9,26.1
	l-4-4c0,0-12.1,12.6-8.1,23.7c0,0-3.5-4.5-3-6s-2,18.1-9.1,25.7c0,0,3.5-6.6,0-10.1c0,0-4.5,20.7-7.6,23.2
	C593.5,554.3,589,544.2,588,550.2z"/>
</svg>
